<svg width="217" height="230" viewBox="0 0 217 230" fill="none" xmlns="http://www.w3.org/2000/svg">
<path d="M25.2321 39.0969C24.8783 39.521 24.9353 40.1516 25.3594 40.5054C25.7835 40.8592 26.4141 40.8022 26.7679 40.3781L25.2321 39.0969ZM6.95376 76.5555C7.12017 76.0289 6.82815 75.4671 6.30153 75.3007C5.77491 75.1343 5.21311 75.4263 5.0467 75.9529L6.95376 76.5555ZM136.748 4.82348L136.486 5.78834L136.748 4.82348ZM149.75 9.28358L149.365 10.2066V10.2066L149.75 9.28358ZM201.618 54.9503L200.752 55.4501V55.4501L201.618 54.9503ZM204.336 59.963L205.228 59.5098L204.336 59.963ZM206.353 66.6237C206.571 67.1311 207.159 67.3657 207.667 67.1476C208.174 66.9296 208.409 66.3414 208.191 65.834L206.353 66.6237ZM214.343 84.807C214.222 84.2682 213.687 83.9296 213.148 84.0508C212.609 84.172 212.271 84.7071 212.392 85.2459L214.343 84.807ZM211.483 136.152C211.343 136.686 211.662 137.233 212.196 137.374C212.73 137.514 213.277 137.195 213.417 136.661L211.483 136.152ZM25.2321 178.576C25.5859 179.001 26.2165 179.058 26.6406 178.704C27.0647 178.35 27.1217 177.719 26.7679 177.295L25.2321 178.576ZM151.842 11.2764C152.346 11.5019 152.937 11.276 153.163 10.7718C153.388 10.2676 153.162 9.67616 152.658 9.45069L151.842 11.2764ZM158.312 12.1792C157.822 11.9248 157.218 12.116 156.964 12.6062C156.709 13.0964 156.9 13.7 157.391 13.9544L158.312 12.1792ZM159.75 14.0765L160.228 13.1984L159.75 14.0765ZM26.7679 40.3781C46.3059 16.9576 75.6679 2.06396 108.5 2.06396V0.0639648C75.0488 0.0639648 45.1332 15.2412 25.2321 39.0969L26.7679 40.3781ZM2 108.837C2 97.5834 3.73613 86.7385 6.95376 76.5555L5.0467 75.9529C1.76818 86.3286 0 97.3766 0 108.837H2ZM108.5 2.06396C118.186 2.06396 127.569 3.36013 136.486 5.78834L137.011 3.85862C127.925 1.3842 118.365 0.0639648 108.5 0.0639648V2.06396ZM136.486 5.78834C140.899 6.99026 145.199 8.46961 149.365 10.2066L150.135 8.36059C145.89 6.59074 141.509 5.08334 137.011 3.85862L136.486 5.78834ZM200.752 55.4501C201.692 57.0788 202.59 58.7346 203.445 60.4162L205.228 59.5098C204.357 57.7967 203.442 56.1098 202.485 54.4506L200.752 55.4501ZM203.445 60.4162C204.478 62.4487 205.449 64.5187 206.353 66.6237L208.191 65.834C207.269 63.6894 206.281 61.5804 205.228 59.5098L203.445 60.4162ZM212.392 85.2459C214.099 92.8341 215 100.729 215 108.837H217C217 100.581 216.082 92.5383 214.343 84.807L212.392 85.2459ZM215 108.837C215 118.279 213.778 127.434 211.483 136.152L213.417 136.661C215.755 127.779 217 118.453 217 108.837H215ZM26.7679 177.295C11.306 158.761 2 134.89 2 108.837H0C0 135.375 9.48111 159.695 25.2321 178.576L26.7679 177.295ZM149.365 10.2066C150.196 10.553 151.022 10.9097 151.842 11.2764L152.658 9.45069C151.823 9.07699 150.981 8.71357 150.135 8.36059L149.365 10.2066ZM157.391 13.9544C158.021 14.2817 158.648 14.6152 159.272 14.9547L160.228 13.1984C159.593 12.8524 158.955 12.5127 158.312 12.1792L157.391 13.9544ZM159.272 14.9547C176.541 24.3617 190.925 38.4191 200.752 55.4501L202.485 54.4506C192.474 37.1017 177.822 22.782 160.228 13.1984L159.272 14.9547Z" fill="#7587A6"/>
<path d="M74.1609 229C73.1809 229 72.3642 228.673 71.7109 228.02C71.0576 227.32 70.7309 226.457 70.7309 225.43V189.8L71.9909 190.22L56.8709 209.54L56.5209 208.63H82.0009C82.9342 208.63 83.7042 208.957 84.3109 209.61C84.9642 210.217 85.2909 210.987 85.2909 211.92C85.2909 212.807 84.9642 213.553 84.3109 214.16C83.7042 214.767 82.9342 215.07 82.0009 215.07H51.6909C50.8509 215.07 50.0576 214.743 49.3109 214.09C48.5642 213.39 48.1909 212.573 48.1909 211.64C48.1909 210.753 48.4942 209.96 49.1009 209.26L71.3609 181.4C71.6876 180.933 72.1076 180.583 72.6209 180.35C73.1342 180.117 73.6709 180 74.2309 180C75.2576 180 76.0976 180.35 76.7509 181.05C77.4042 181.703 77.7309 182.543 77.7309 183.57V225.43C77.7309 226.457 77.3809 227.32 76.6809 228.02C75.9809 228.673 75.1409 229 74.1609 229ZM108.486 229.7C104.566 229.7 101.253 228.627 98.5461 226.48C95.8394 224.287 93.7861 221.3 92.3861 217.52C91.0327 213.693 90.3561 209.353 90.3561 204.5C90.3561 199.6 91.0327 195.26 92.3861 191.48C93.7861 187.653 95.8394 184.667 98.5461 182.52C101.253 180.373 104.566 179.3 108.486 179.3C112.406 179.3 115.696 180.373 118.356 182.52C121.063 184.667 123.116 187.653 124.516 191.48C125.916 195.26 126.616 199.6 126.616 204.5C126.616 209.353 125.916 213.693 124.516 217.52C123.116 221.3 121.063 224.287 118.356 226.48C115.696 228.627 112.406 229.7 108.486 229.7ZM108.486 222.63C110.679 222.63 112.546 221.93 114.086 220.53C115.673 219.13 116.886 217.077 117.726 214.37C118.613 211.663 119.056 208.373 119.056 204.5C119.056 200.58 118.613 197.267 117.726 194.56C116.886 191.853 115.673 189.8 114.086 188.4C112.546 187 110.679 186.3 108.486 186.3C106.293 186.3 104.403 187 102.816 188.4C101.229 189.8 100.016 191.853 99.1761 194.56C98.3361 197.267 97.9161 200.58 97.9161 204.5C97.9161 208.373 98.3361 211.663 99.1761 214.37C100.016 217.077 101.229 219.13 102.816 220.53C104.403 221.93 106.293 222.63 108.486 222.63ZM156.534 229C155.554 229 154.737 228.673 154.084 228.02C153.431 227.32 153.104 226.457 153.104 225.43V189.8L154.364 190.22L139.244 209.54L138.894 208.63H164.374C165.307 208.63 166.077 208.957 166.684 209.61C167.337 210.217 167.664 210.987 167.664 211.92C167.664 212.807 167.337 213.553 166.684 214.16C166.077 214.767 165.307 215.07 164.374 215.07H134.064C133.224 215.07 132.431 214.743 131.684 214.09C130.937 213.39 130.564 212.573 130.564 211.64C130.564 210.753 130.867 209.96 131.474 209.26L153.734 181.4C154.061 180.933 154.481 180.583 154.994 180.35C155.507 180.117 156.044 180 156.604 180C157.631 180 158.471 180.35 159.124 181.05C159.777 181.703 160.104 182.543 160.104 183.57V225.43C160.104 226.457 159.754 227.32 159.054 228.02C158.354 228.673 157.514 229 156.534 229Z" fill="#7587A6"/>
<path opacity="0.6" d="M99.319 53.5174C103.384 47.2022 112.616 47.2022 116.681 53.5174L165.31 129.075C169.731 135.945 164.799 144.985 156.629 144.985H59.3711C51.2011 144.985 46.2685 135.945 50.6902 129.075L99.319 53.5174Z" fill="#FEC020"/>
<path d="M52.5638 138.67L55.0676 140.068L55.0732 140.058L55.0787 140.048L52.5638 138.67ZM98.954 53.9909L101.469 55.3687L101.475 55.3586L101.48 55.3484L98.954 53.9909ZM106.257 49.6245V46.7569V49.6245ZM113.561 53.9909L111.035 55.3484L111.04 55.3586L111.046 55.3687L113.561 53.9909ZM159.951 138.67L157.436 140.048L157.441 140.058L157.447 140.068L159.951 138.67ZM152.648 151.331V154.198H152.669L152.691 154.198L152.648 151.331ZM59.8671 151.331L59.8237 154.198L59.8454 154.198H59.8671V151.331ZM90.4739 63.5017C89.713 64.8906 90.2221 66.6335 91.6111 67.3944C93.0001 68.1553 94.7429 67.6462 95.5038 66.2572L90.4739 63.5017ZM91.4196 73.7109C92.1491 72.3051 91.6008 70.5742 90.195 69.8448C88.7893 69.1153 87.0583 69.6636 86.3289 71.0693L91.4196 73.7109ZM82.4316 78.58C81.7022 79.9858 82.2504 81.7167 83.6562 82.4462C85.062 83.1756 86.7929 82.6274 87.5223 81.2216L82.4316 78.58ZM81.233 92.3066C81.994 90.9177 81.4848 89.1748 80.0959 88.4139C78.7069 87.6529 76.964 88.1621 76.2031 89.5511L81.233 92.3066ZM142.559 148.463C140.975 148.463 139.691 149.747 139.691 151.331C139.691 152.914 140.975 154.198 142.559 154.198V148.463ZM133.796 154.198C135.38 154.198 136.664 152.914 136.664 151.331C136.664 149.747 135.38 148.463 133.796 148.463V154.198ZM128.163 148.463C126.58 148.463 125.296 149.747 125.296 151.331C125.296 152.914 126.58 154.198 128.163 154.198V148.463ZM116.897 154.198C118.481 154.198 119.765 152.914 119.765 151.331C119.765 149.747 118.481 148.463 116.897 148.463V154.198ZM101.48 55.3484C101.944 54.485 102.633 53.7636 103.474 53.2607L100.531 48.338C98.8005 49.3728 97.3825 50.8572 96.428 52.6335L101.48 55.3484ZM103.474 53.2607C104.316 52.7577 105.277 52.4922 106.257 52.4922V46.7569C104.241 46.7569 102.262 47.3033 100.531 48.338L103.474 53.2607ZM106.257 52.4922C107.237 52.4922 108.199 52.7577 109.04 53.2607L111.983 48.338C110.253 47.3033 108.274 46.7569 106.257 46.7569V52.4922ZM109.04 53.2607C109.882 53.7636 110.571 54.485 111.035 55.3484L116.087 52.6335C115.132 50.8572 113.714 49.3728 111.983 48.338L109.04 53.2607ZM111.046 55.3687L157.436 140.048L162.466 137.292L116.076 52.6131L111.046 55.3687ZM157.447 140.068C157.923 140.921 158.17 141.882 158.163 142.859L163.898 142.899C163.912 140.93 163.415 138.991 162.455 137.272L157.447 140.068ZM158.163 142.859C158.156 143.836 157.896 144.794 157.408 145.64L162.376 148.506C163.36 146.8 163.884 144.868 163.898 142.899L158.163 142.859ZM157.408 145.64C156.92 146.486 156.221 147.191 155.379 147.686L158.285 152.63C159.982 151.632 161.392 150.211 162.376 148.506L157.408 145.64ZM155.379 147.686C154.537 148.181 153.581 148.448 152.604 148.463L152.691 154.198C154.66 154.168 156.587 153.628 158.285 152.63L155.379 147.686ZM59.9105 148.463C58.934 148.448 57.9779 148.181 57.1359 147.686L54.2299 152.63C55.9275 153.628 57.8549 154.168 59.8237 154.198L59.9105 148.463ZM57.1359 147.686C56.2939 147.191 55.5947 146.486 55.1067 145.64L50.1387 148.506C51.1226 150.211 52.5323 151.632 54.2299 152.63L57.1359 147.686ZM55.1067 145.64C54.6187 144.794 54.3585 143.836 54.3517 142.859L48.6165 142.899C48.6303 144.868 49.1548 146.8 50.1387 148.506L55.1067 145.64ZM54.3517 142.859C54.3448 141.882 54.5915 140.921 55.0676 140.068L50.0599 137.272C49.1 138.991 48.6027 140.93 48.6165 142.899L54.3517 142.859ZM95.5038 66.2572L101.469 55.3687L96.439 52.6131L90.4739 63.5017L95.5038 66.2572ZM87.5223 81.2216L91.4196 73.7109L86.3289 71.0693L82.4316 78.58L87.5223 81.2216ZM55.0787 140.048L81.233 92.3066L76.2031 89.5511L50.0488 137.292L55.0787 140.048ZM152.648 148.463H144.437V154.198H152.648V148.463ZM144.437 148.463H142.559V154.198H144.437V148.463ZM133.796 148.463H130.667V154.198H133.796V148.463ZM130.667 148.463H128.163V154.198H130.667V148.463ZM116.897 148.463H59.8671V154.198H116.897V148.463Z" fill="#7688A7"/>
<path d="M104.537 86.4854V82.4706C103.438 82.4706 102.388 82.9208 101.63 83.7161C100.872 84.5114 100.473 85.5825 100.527 86.6797L104.537 86.4854ZM106.257 121.992L102.247 122.187C102.351 124.325 104.115 126.006 106.256 126.007C108.397 126.008 110.162 124.328 110.267 122.189L106.257 121.992ZM107.999 86.4854L112.008 86.682C112.062 85.5844 111.664 84.5128 110.906 83.7169C110.148 82.9211 109.097 82.4706 107.999 82.4706V86.4854ZM100.527 86.6797L102.247 122.187L110.267 121.798L108.547 86.291L100.527 86.6797ZM104.537 90.5001H107.999V82.4706H104.537V90.5001ZM103.989 86.2887L102.247 121.796L110.267 122.189L112.008 86.682L103.989 86.2887Z" fill="#7688A7"/>
<path d="M106.258 137.639C107.338 137.639 108.214 136.764 108.214 135.683C108.214 134.603 107.338 133.728 106.258 133.728C105.177 133.728 104.302 134.603 104.302 135.683C104.302 136.764 105.177 137.639 106.258 137.639Z" fill="#7587A6" stroke="#7688A7" stroke-width="5.73529" stroke-miterlimit="10" stroke-linecap="square"/>
<path d="M68.4131 74.6514L67.0842 75.7443C67.6451 76.4263 68.6312 76.573 69.3663 76.0837C70.1015 75.5945 70.3469 74.6283 69.9344 73.8475L68.4131 74.6514ZM61.9057 66.7394L60.9513 65.3077C60.5467 65.5775 60.2751 66.0059 60.2037 66.4869C60.1324 66.968 60.2679 67.4567 60.5768 67.8323L61.9057 66.7394ZM63.6263 65.5923L65.1476 64.7885C64.9202 64.3581 64.5211 64.0442 64.0492 63.9245C63.5774 63.8049 63.0769 63.8907 62.6719 64.1607L63.6263 65.5923ZM69.742 73.5584L63.2346 65.6464L60.5768 67.8323L67.0842 75.7443L69.742 73.5584ZM62.8601 68.171L64.5807 67.0239L62.6719 64.1607L60.9513 65.3077L62.8601 68.171ZM62.105 66.3961L66.8918 75.4552L69.9344 73.8475L65.1476 64.7885L62.105 66.3961Z" fill="#7587A6"/>
<path d="M64.1387 82.8389L64.3479 84.5467C65.2507 84.4361 65.9115 83.642 65.8561 82.7341C65.8008 81.8262 65.0483 81.1183 64.1387 81.1183L64.1387 82.8389ZM48.6536 84.7354L46.9332 84.7111C46.9262 85.208 47.1344 85.6838 47.5043 86.0158C47.8741 86.3477 48.3694 86.5036 48.8628 86.4432L48.6536 84.7354ZM48.6803 82.8389L48.6803 81.1183C47.7396 81.1183 46.9732 81.8739 46.9599 82.8146L48.6803 82.8389ZM63.9296 81.131L48.4444 83.0275L48.8628 86.4432L64.3479 84.5467L63.9296 81.131ZM50.374 84.7596L50.4008 82.8631L46.9599 82.8146L46.9332 84.7111L50.374 84.7596ZM48.6803 84.5594L64.1387 84.5594L64.1387 81.1183L48.6803 81.1183L48.6803 84.5594Z" fill="#7587A6"/>
<path d="M146.043 83.4131L146.356 81.7154C145.455 81.5492 144.581 82.1162 144.366 83.0068C144.15 83.8975 144.668 84.8014 145.545 85.0659L146.043 83.4131ZM167.627 87.3924L169.353 87.3788C169.347 86.5513 168.754 85.8447 167.94 85.6947L167.627 87.3924ZM167.647 89.9262L167.149 91.579C167.674 91.7374 168.243 91.6367 168.682 91.3079C169.121 90.979 169.377 90.4611 169.373 89.9127L167.647 89.9262ZM145.73 85.1108L167.314 89.0901L167.94 85.6947L146.356 81.7154L145.73 85.1108ZM165.901 87.4059L165.921 89.9397L169.373 89.9127L169.353 87.3788L165.901 87.4059ZM168.145 88.2734L146.542 81.7602L145.545 85.0659L167.149 91.579L168.145 88.2734Z" fill="#7587A6"/>
<path d="M142.399 72.1606L141.672 70.5951C140.85 70.9772 140.463 71.9302 140.787 72.7771C141.111 73.6239 142.034 74.076 142.902 73.8123L142.399 72.1606ZM158.47 64.6912L159.969 63.8351C159.524 63.0558 158.557 62.7474 157.743 63.1257L158.47 64.6912ZM159.727 66.8916L160.229 68.5432C160.732 68.3904 161.137 68.0173 161.331 67.5293C161.525 67.0413 161.486 66.4915 161.226 66.0355L159.727 66.8916ZM143.127 73.7261L159.198 66.2567L157.743 63.1257L141.672 70.5951L143.127 73.7261ZM156.971 65.5472L158.228 67.7476L161.226 66.0355L159.969 63.8351L156.971 65.5472ZM159.225 65.2399L141.897 70.509L142.902 73.8123L160.229 68.5432L159.225 65.2399Z" fill="#7587A6"/>
<path d="M135.838 63.4174L134.282 62.67C133.895 63.4746 134.186 64.4413 134.952 64.8993C135.719 65.3572 136.708 65.1555 137.233 64.434L135.838 63.4174ZM141.838 50.9265L142.635 49.3953C142.221 49.1794 141.736 49.1409 141.293 49.2886C140.849 49.4363 140.484 49.7576 140.282 50.179L141.838 50.9265ZM144.085 52.0968L145.481 53.1134C145.777 52.707 145.881 52.1918 145.766 51.7024C145.651 51.2129 145.329 50.7979 144.883 50.5657L144.085 52.0968ZM137.394 64.1649L143.394 51.674L140.282 50.179L134.282 62.67L137.394 64.1649ZM141.041 52.4576L143.288 53.628L144.883 50.5657L142.635 49.3953L141.041 52.4576ZM142.69 51.0803L134.443 62.4009L137.233 64.434L145.481 53.1134L142.69 51.0803Z" fill="#7587A6"/>
</svg>
