<svg width="256" height="134" viewBox="0 0 256 134" fill="none" xmlns="http://www.w3.org/2000/svg">
  <g clip-path="url(#clip0_45_13658)">
    <path
      d="M240.657 66.1463H239.309V67.3334V69.7968V70.9837V73.4595H240.657V70.9837H243.515V69.7968H240.657V67.3334H246.391V66.1463H240.657Z"
      fill="#231815" />
    <path d="M245.042 69.7968H244.276V70.9837H245.042H245.98H246.391V68.0189H245.042V69.7968Z" fill="#231815" />
    <path
      d="M243.302 75.8572C238.812 76.1724 235.078 72.8858 235.435 68.9339C235.716 65.8239 238.578 63.3044 242.112 63.0565C246.601 62.7414 250.336 66.0279 249.978 69.9798C249.697 73.0898 246.835 75.6093 243.302 75.8572ZM243.337 64.0632C239.447 63.721 236.19 66.5882 236.579 70.0126C236.867 72.5473 239.197 74.5973 242.077 74.8505C245.967 75.1927 249.224 72.3255 248.835 68.9012C248.546 66.3664 246.217 64.317 243.337 64.0632Z"
      fill="#231815" />
    <path
      d="M26.0111 38.6978C26.1935 38.7458 26.3827 38.7708 26.573 38.7721C26.8379 38.7737 27.0987 38.7148 27.3299 38.601C28.1425 38.202 28.4502 37.2313 28.7213 36.3745C28.8326 36.0268 28.9357 35.6985 29.0524 35.4926C29.9117 33.9724 31.438 32.6546 32.9596 31.4566C36.1787 28.9235 40.1129 26.6842 44.9874 24.6106C49.7857 22.5696 54.1538 21.2303 58.3413 20.5168C61.6966 19.9445 66.5453 19.3963 69.8855 21.2376C70.5242 21.5903 70.8666 22.0142 71.3724 22.6772C71.5098 22.8577 71.6353 23.0704 71.7613 23.2816C72.0004 23.6832 72.2478 24.0981 72.587 24.3552C73.1919 24.8142 73.9528 24.8936 74.6211 24.5665C75.4337 24.1704 75.8954 23.2863 75.7434 22.4166C75.2186 19.4071 72.0127 17.3319 69.0687 16.6101C60.9653 14.6252 51.5794 17.8628 44.3086 20.905C39.4405 22.9416 35.221 25.3067 31.7661 27.9348C31.1254 28.4222 24.0857 34.8768 24.7658 37.5945C24.8626 37.9788 25.1567 38.4822 26.0111 38.6978Z"
      fill="#18CF77" />
    <path
      d="M80.4903 41.6588C81.8975 41.3158 83.6482 40.889 84.2796 39.9093C84.6471 39.3399 84.8702 38.409 84.4924 37.7102C84.2577 37.2769 83.8377 37.0037 83.2762 36.9215C82.1631 36.7606 80.5313 37.4383 79.0927 38.0386C78.6029 38.2426 78.1628 38.4275 77.8224 38.5392C74.4386 39.6498 70.9564 40.8649 67.4743 42.1505C60.8511 44.5962 53.874 47.4506 46.1232 50.8862C43.877 51.8824 42.9431 52.1969 42.5726 52.2941C42.5657 51.7079 42.8024 50.3043 42.8999 49.7256L42.984 49.2121C43.1699 47.9796 43.4431 46.7327 43.7075 45.5277L43.8545 44.8543C44.0751 43.8377 44.3106 42.8233 44.5464 41.8091C45.0139 39.7956 45.4981 37.7131 45.8487 35.6426C46.0386 34.5196 46.3106 33.4627 46.5506 32.5306C47.0404 30.6313 47.3926 29.2591 46.7884 28.4842C46.5517 28.1812 46.19 27.996 45.7134 27.9354C44.521 27.7867 43.643 29.5033 42.7251 33.8797L40.3186 44.9875C39.6398 48.1428 38.7099 52.4619 37.5995 54.2706C37.2863 54.7801 33.6622 56.9077 31.0297 57.7512C30.6412 57.8755 30.2338 57.9921 29.8204 58.1099C27.8327 58.6782 25.5795 59.3228 24.504 61.1574C24.0521 61.9283 23.5759 63.4129 24.6599 64.0863C25.7258 64.7464 27.3411 63.7794 28.5208 63.0723C28.7904 62.9106 29.0275 62.7675 29.2109 62.6766C29.4378 62.5639 29.7452 62.3956 30.1096 62.1963C31.6778 61.3377 34.5945 59.7373 35.9917 60.0618C36.2406 60.1193 36.4125 60.2366 36.5331 60.4309C37.201 61.5056 36.4835 63.9264 35.9597 65.6939C35.7727 66.3244 35.5963 66.9198 35.4904 67.4101L31.2049 87.2056C31.1139 87.6248 30.96 88.1199 30.7955 88.6439C30.3988 89.9139 29.9496 91.3536 30.1606 92.4877C30.3779 93.6522 31.0551 93.8558 31.4396 93.8733C31.4596 93.8743 31.4796 93.8751 31.5001 93.8751C32.4351 93.8751 33.3895 92.8893 33.6733 91.9764C33.8359 91.4539 33.9372 90.91 34.0347 90.384C34.0823 90.1283 34.1295 89.8727 34.184 89.6221L36.2221 80.1909C36.6131 78.3826 37.0011 76.5739 37.3862 74.7647C38.1471 71.2053 38.9081 67.6453 39.7001 64.0914L39.7752 63.7529C40.354 61.1393 40.9524 58.4366 43.0444 56.5975C44.8278 55.0296 47.3706 54.0323 49.8301 53.0678C50.5322 52.7935 51.2217 52.5224 51.8782 52.2447C59.2788 49.1116 66.6774 46.2673 73.8667 43.7919C75.6922 43.1631 77.5251 42.5516 79.3654 41.9571C79.6735 41.8577 80.0653 41.7625 80.4903 41.6588Z"
      fill="#18CF77" />
    <path
      d="M234.55 53.4074C234.51 53.3705 234.462 53.3406 234.409 53.3194C233.179 52.8295 232.272 54.3742 231.61 55.4997C231.438 55.7908 231.285 56.0526 231.152 56.2292C230.351 57.2994 229.881 57.8537 228.758 58.6687C227.023 59.9281 223.148 61.8436 220.894 60.0863C220 59.3894 219.149 58.1202 218.325 56.8931C216.942 54.8338 215.513 52.7041 213.527 52.6257C212.45 52.5841 211.331 53.1644 210.174 54.4012C209.854 53.8415 209.339 53.6209 208.883 53.6161C208.165 53.6097 207.247 54.187 206.991 55.4976L206.94 55.7572C206.812 56.4236 206.679 57.1136 206.444 57.7404C206.073 58.7295 205.654 59.0021 204.496 59.6445C204.359 59.7213 204.166 59.8387 203.935 59.9793C203.144 60.4616 200.741 61.9263 200.12 61.5226C199.349 61.0131 199.554 59.6633 199.665 58.9378L199.798 57.9516C199.989 56.5437 200.227 54.7916 199.956 53.8997C199.618 52.7862 198.99 52.0258 198.089 51.6401C197.093 51.2146 195.846 51.2771 194.383 51.8292C192.619 52.4955 191.121 53.826 189.672 55.1138C189.006 55.7057 188.377 56.2646 187.744 56.7405C187.336 57.0472 186.897 57.3854 186.433 57.7425C183.641 59.8936 179.818 62.8394 176.601 63.5061C174.053 64.0312 173.087 62.1852 172.002 59.5152C171.739 58.8684 171.492 58.2576 171.203 57.7271C170.704 56.8095 170.059 56.2903 169.284 56.1855C167.75 55.9771 166.159 57.4703 164.882 58.6713C164.786 58.7616 164.691 58.8508 164.598 58.9374C164.693 57.8268 164.742 56.3083 163.319 55.9038C162.453 55.6547 161.426 56.0204 160.164 57.028C159.308 57.7852 158.021 58.9617 157.166 59.7482C157.054 58.931 156.516 58.3828 156.2 58.1216C153.417 56.2876 148.916 58.3475 146.227 59.5793C141.983 61.522 138.417 64.0139 135.251 66.3065C135.259 66.2683 135.267 66.2303 135.275 66.1917C135.915 63.0364 136.987 57.7539 133.358 56.7775C130.382 55.9777 127.837 58.4422 125.98 60.2415C125.632 60.578 125.305 60.8951 125 61.1677C124.478 61.6339 123.982 62.0913 123.498 62.5396C121.934 63.9847 120.458 65.3499 118.503 66.5672C117.703 67.0648 115.264 68.1654 113.988 67.939C113.734 67.8936 113.558 67.7971 113.45 67.6441C113.161 67.2335 113.388 66.789 113.783 66.0982C114.145 65.4638 114.556 64.7447 114.368 63.9273C114.163 63.0342 113.596 62.869 113.22 62.7585C112.964 62.6836 112.847 62.6493 112.747 62.4226C112.703 62.3246 112.66 62.2048 112.612 62.0716C112.41 61.5187 112.105 60.6832 111.397 60.0802C110.993 59.7357 109.928 58.9278 108.787 58.872C105.505 58.704 103.506 60.8239 101.896 62.5207L101.421 63.0207C100.548 63.9222 99.7251 64.8237 98.917 65.7107C97.2723 67.5137 95.7193 69.2188 93.9276 70.7167C89.5455 74.3815 87.2957 74.6559 86.1817 74.2443C82.7144 72.9597 83.8794 66.8037 84.1481 65.582C84.7986 62.6285 85.9598 59.8135 87.9131 56.4538C88.8853 54.7818 89.4607 54.0132 90.9534 52.7576C92.4258 51.5176 93.8771 50.0746 95.2801 48.6786C95.8308 48.1312 96.3742 47.5903 96.9092 47.0716C99.4711 44.5879 105.282 38.5156 103.908 35.784C103.475 34.9217 102.42 34.4833 100.775 34.4833C97.4729 34.4833 95.1975 37.7436 93.8377 39.6915L93.7139 39.8679C91.9329 42.417 90.0923 45.0533 88.4353 47.7267C88.1306 48.2188 87.8708 48.6537 87.6292 49.058C86.8881 50.2974 86.3527 51.1932 85.2432 52.5498C83.9807 54.0918 81.9183 55.543 80.4105 56.489L80.2275 56.6027C79.3526 57.1462 78.3608 57.7621 78.402 58.5053C78.422 58.8596 78.6678 59.1567 79.1333 59.389C79.8085 59.7255 81.2705 59.2304 82.4085 58.6805C81.6387 60.4557 80.7039 63.0483 80.329 64.2518C79.3355 67.4393 79.313 69.6076 79.4049 71.1402C79.4717 72.2769 80.1091 74.5687 82.0641 75.9564C83.5 76.9755 85.3509 77.3322 87.5651 77.0147C93.2375 76.2037 97.2133 71.4708 100.407 67.6682L100.702 67.3176C100.56 69.0324 101.488 69.8116 102.165 70.1485C104.045 71.0845 107.333 70.32 109.489 68.5521C109.795 69.7495 110.461 70.5315 111.475 70.8827C114.483 71.9247 119.599 68.6218 121.573 67.2225C121.597 68.1607 121.916 68.9364 122.518 69.4971C123.265 70.194 124.41 70.5081 125.827 70.4049C127.798 70.2616 130.158 68.8174 131.728 67.2366C131.72 67.2839 131.711 67.3297 131.702 67.3738C131.346 69.2533 131.346 69.2533 129.568 70.7075C128.619 71.4837 127.646 72.2361 126.67 72.9885C125.037 74.2502 123.348 75.5549 121.797 76.9641C116.067 82.1712 111.681 87.5414 108.76 92.9258C106.017 97.9851 103.306 105.443 105.972 112.243C106.493 113.572 108.529 117.914 112.844 117.996C112.889 117.997 112.932 117.997 112.976 117.997C115.38 117.997 117.709 116.724 119.9 114.21C123.857 109.672 125.836 103.642 127.608 98.2426C128.975 94.0741 129.98 89.7531 130.951 85.5742C131.291 84.1131 131.631 82.6529 131.985 81.1969C132.149 80.5253 132.32 79.8545 132.492 79.1834C132.928 77.4772 133.38 75.713 133.689 73.9507L133.766 73.5012C134.056 71.8032 134.1 71.5425 135.733 70.2871C136.365 69.8014 137.014 69.2915 137.679 68.769C141.559 65.7182 145.956 62.2607 150.624 60.8502C151.998 60.4353 152.845 60.3559 153.139 60.6133C153.356 60.8008 153.332 61.3037 153.075 61.992C152.548 63.403 151.594 64.6442 150.341 66.2746L150.274 66.3606C149.909 66.831 149.358 67.5402 149.509 68.1934C149.573 68.4737 149.763 68.7088 150.056 68.8748C151.305 69.5804 152.405 68.2401 152.934 67.5959L153.116 67.3781C154.929 65.3007 157.833 62.4751 160.79 60.4635C160.76 61.5891 160.776 62.9041 161.671 63.4458C162.176 63.7509 162.862 63.7505 163.712 63.4419C164.64 63.1046 165.594 62.3502 166.437 61.6847C167.134 61.1336 167.924 60.5088 168.284 60.4696H168.304C168.738 60.4696 168.894 60.744 169.225 61.7194C169.462 62.4184 169.758 63.2872 170.458 64.0712C171.968 65.7607 173.561 66.4868 175.499 66.3602C178.819 66.1391 182.581 63.2637 185.604 60.9511C185.839 60.7714 186.07 60.5944 186.297 60.422C185.655 61.7031 185.072 63.2519 185.118 64.4547C185.145 65.1361 185.526 65.7286 186.192 66.1231C187.123 66.6748 188.509 66.778 189.721 66.3867C192.062 65.6312 194.029 63.8769 195.697 62.2607C195.964 63.3031 196.529 64.0004 197.382 64.3381C199.064 65.0044 201.708 64.2087 205.441 61.9003C205.327 62.569 205.314 63.3219 205.758 63.8148C206.042 64.1307 206.461 64.2936 207.002 64.2991C207.007 64.2991 207.013 64.2991 207.019 64.2991C208.496 64.2991 209.39 62.3555 210.109 60.7924C210.314 60.3483 210.49 59.9648 210.638 59.7251C210.702 59.6232 210.785 59.4801 210.883 59.309C212.07 57.2667 212.919 56.2303 213.406 56.2282C213.743 56.2282 214.358 57.0605 215.236 58.703C215.377 58.9666 215.494 59.1844 215.578 59.3167C217.5 62.3473 220.422 65.5802 226.012 63.6519C228.057 62.9464 230.078 61.7078 231.857 60.068C232.652 59.3409 235.844 54.6135 234.55 53.4074ZM195.505 56.7469C195.158 57.5181 194.554 58.2168 193.969 58.8929L193.513 59.427C189.542 64.1652 188.405 63.8299 188.255 63.7147C188.047 62.9823 189.576 60.4582 191.12 58.4559L191.393 58.1C191.997 57.3114 192.329 56.8773 193.385 55.817C193.872 55.2783 194.788 54.5522 195.344 54.5522C195.386 54.5519 195.428 54.5567 195.469 54.5663C195.734 54.6319 195.824 54.7454 195.868 54.8248C195.996 55.0515 196.037 55.5693 195.505 56.7469ZM124.967 66.8378C124.826 65.5581 126.977 62.6552 127.679 61.9081C128.932 60.5754 130.553 59.1475 131.723 59.1475C131.961 59.1443 132.193 59.2131 132.381 59.3425C133.06 59.904 131.7 62.9682 130.371 64.34C129.052 65.7003 126.092 67.8742 125.136 67.1841C125.1 67.1588 124.993 67.0804 124.967 66.8378ZM109.007 63.9937C107.897 66.1629 107.167 67.0963 106.218 67.5622C105.441 67.9437 104.72 68.0807 104.243 67.9402C103.96 67.8561 103.749 67.6701 103.601 67.3719C102.93 66.0196 104.284 63.7815 105.897 62.3606C106.443 61.8807 107.112 61.6719 107.707 61.6719C108.103 61.6719 108.467 61.7645 108.74 61.9308C109.382 62.3201 109.48 63.0722 109.007 63.9937ZM92.4329 46.912C94.207 44.3562 96.0893 41.8949 97.4548 40.2159L97.6427 39.9761C98.0813 39.4077 98.8934 38.3508 99.6719 38.4944C99.7164 38.623 99.6051 39.0503 98.376 40.4694L98.1574 40.7253C96.3673 42.8944 94.2362 45.0831 92.4329 46.912ZM115.802 112.873C114.813 113.637 113.838 113.933 112.901 113.749C111.694 113.513 110.55 112.469 109.762 110.885C108.429 108.205 108.348 104.85 109.519 100.912C111.331 94.8239 115.374 88.7069 121.881 82.2119C123.88 80.2161 126.285 77.9256 128.96 76.0689C129.458 75.723 129.718 75.5962 129.846 75.55C129.865 75.6803 129.868 75.9713 129.753 76.6094C128.778 82.0414 127.049 87.5485 125.376 92.8737L124.763 94.8314C123.819 97.8563 122.647 101.413 121.111 104.858C119.987 107.376 118.45 110.823 115.802 112.873Z"
      fill="#18CF77" />
  </g>
  <defs>
    <clipPath id="clip0_45_13658">
      <rect width="226" height="102" fill="white" transform="translate(24 16)" />
    </clipPath>
  </defs>
</svg>
